<?xml version="1.0" encoding="UTF-8" standalone="no"?>
<!DOCTYPE svg PUBLIC "-//W3C//DTD SVG 1.1//EN" "http://www.w3.org/Graphics/SVG/1.1/DTD/svg11.dtd">
<svg width="100%" height="100%" viewBox="0 0 512 512" version="1.1" xmlns="http://www.w3.org/2000/svg" xmlns:xlink="http://www.w3.org/1999/xlink" xml:space="preserve" xmlns:serif="http://www.serif.com/" style="fill-rule:evenodd;clip-rule:evenodd;stroke-linecap:round;stroke-linejoin:round;stroke-miterlimit:1;">
    <path d="M251.021,13.554C323.804,92.178 323.338,192.417 278.994,305.604C315.863,247.01 353.987,222.384 392.897,219.029C432.045,215.653 461.044,251.55 461.801,285.165C462.53,317.527 440.679,351.011 400.227,361.203C385.361,362.792 373.81,361.6 365.765,357.467C376.421,344.299 376.965,325.989 363.952,317.882C329.127,305.552 302.415,324.155 279.502,357.243C293.928,356.343 303.785,356.815 306.991,359.284C315.638,367.396 315.322,374.347 309.927,380.64C305.938,387.146 292.325,386.24 277.306,384.251L277.777,392.314C286.267,415.625 312.235,418.939 338.081,414.617C329.943,449.696 312.742,461.396 284.213,443.875C293.207,462.655 277.287,480.703 251.021,498.446M251.021,13.554C178.237,92.178 178.704,192.417 223.047,305.604C186.178,247.01 148.054,222.384 109.145,219.029C69.996,215.653 40.998,251.55 40.24,285.165C39.512,317.527 61.363,351.011 101.814,361.203C116.681,362.792 128.232,361.6 136.276,357.467C125.621,344.299 125.076,325.989 138.089,317.882C172.914,305.552 199.627,324.155 222.54,357.243C208.113,356.343 198.257,356.815 195.05,359.284C186.404,367.396 186.72,374.347 192.114,380.64C196.103,387.146 209.716,386.24 224.736,384.251L224.264,392.314C215.775,415.625 189.806,418.939 163.96,414.617C172.098,449.696 189.299,461.396 217.829,443.875C208.834,462.655 224.754,480.703 251.021,498.446" style="fill:none;stroke:rgb(255,184,61);stroke-width:16.67px;"/>
</svg>
