<?xml version="1.0" encoding="UTF-8" standalone="no"?>
<!DOCTYPE svg PUBLIC "-//W3C//DTD SVG 1.1//EN" "http://www.w3.org/Graphics/SVG/1.1/DTD/svg11.dtd">
<svg width="100%" height="100%" viewBox="0 0 512 512" version="1.1" xmlns="http://www.w3.org/2000/svg" xmlns:xlink="http://www.w3.org/1999/xlink" xml:space="preserve" xmlns:serif="http://www.serif.com/" style="fill-rule:evenodd;clip-rule:evenodd;stroke-linecap:round;stroke-linejoin:round;stroke-miterlimit:1.5;">
    <path d="M256,5.284C181.157,86.131 181.637,189.207 227.235,305.596C189.323,245.344 150.12,220.021 110.11,216.571C69.854,213.1 40.035,250.013 39.256,284.579C38.507,317.857 60.976,352.288 102.572,362.768C117.859,364.402 129.737,363.176 138.009,358.926C127.052,345.386 126.492,326.558 139.873,318.222C175.684,305.542 203.152,324.672 226.713,358.696C211.878,357.771 201.743,358.256 198.446,360.794C189.555,369.137 189.88,376.284 195.427,382.755C199.529,389.445 213.527,388.514 228.971,386.468L228.487,394.759C219.757,418.729 193.053,422.138 166.476,417.693C174.844,453.764 192.532,465.796 221.869,447.779C212.62,467.091 228.991,485.649 256,503.894M256,5.284C330.843,86.131 330.363,189.207 284.765,305.596C322.677,245.344 361.88,220.021 401.89,216.571C442.146,213.1 471.965,250.013 472.744,284.579C473.493,317.857 451.024,352.288 409.428,362.768C394.141,364.402 382.263,363.176 373.991,358.926C384.948,345.386 385.508,326.558 372.127,318.222C336.316,305.542 308.848,324.672 285.287,358.696C300.122,357.771 310.257,358.256 313.554,360.794C322.445,369.137 322.12,376.284 316.573,382.755C312.471,389.445 298.473,388.514 283.029,386.468L283.513,394.759C292.243,418.729 318.947,422.138 345.524,417.693C337.156,453.764 319.468,465.796 290.131,447.779C299.38,467.091 283.009,485.649 256,503.894L256,5.284Z" style="fill:rgb(255,184,61);stroke:rgb(255,184,61);stroke-width:1px;"/>
</svg>
