<?xml version="1.0" encoding="UTF-8" standalone="no"?>
<!DOCTYPE svg PUBLIC "-//W3C//DTD SVG 1.1//EN" "http://www.w3.org/Graphics/SVG/1.1/DTD/svg11.dtd">
<svg width="100%" height="100%" viewBox="0 0 512 512" version="1.1" xmlns="http://www.w3.org/2000/svg" xmlns:xlink="http://www.w3.org/1999/xlink" xml:space="preserve" xmlns:serif="http://www.serif.com/" style="fill-rule:evenodd;clip-rule:evenodd;stroke-linecap:round;stroke-linejoin:round;stroke-miterlimit:1.5;">
    <g transform="matrix(-1,0,0,1,512,0)">
        <path d="M256,5.284C181.157,86.131 181.637,189.207 227.235,305.596C189.323,245.344 150.12,220.021 110.11,216.571C69.854,213.1 40.035,250.013 39.256,284.579C38.507,317.857 60.976,352.288 102.572,362.768C117.859,364.402 129.737,363.176 138.009,358.926C127.052,345.386 126.492,326.558 139.873,318.222C175.684,305.542 203.152,324.672 226.713,358.696C211.878,357.771 201.743,358.256 198.446,360.794C189.555,369.137 189.88,376.284 195.427,382.755C199.529,389.445 213.527,388.514 228.971,386.468L228.487,394.759C219.757,418.729 193.053,422.138 166.476,417.693C174.844,453.764 192.532,465.796 221.869,447.779C212.62,467.091 228.991,485.649 256,503.894" style="fill:none;stroke:rgb(255,184,61);stroke-width:4.17px;"/>
    </g>
    <path d="M256,5.284C181.157,86.131 181.637,189.207 227.235,305.596C189.323,245.344 150.12,220.021 110.11,216.571C69.854,213.1 40.035,250.013 39.256,284.579C38.507,317.857 60.976,352.288 102.572,362.768C117.859,364.402 129.737,363.176 138.009,358.926C127.052,345.386 126.492,326.558 139.873,318.222C175.684,305.542 203.152,324.672 226.713,358.696C211.878,357.771 201.743,358.256 198.446,360.794C189.555,369.137 189.88,376.284 195.427,382.755C199.529,389.445 213.527,388.514 228.971,386.468L228.487,394.759C219.757,418.729 193.053,422.138 166.476,417.693C174.844,453.764 192.532,465.796 221.869,447.779C212.62,467.091 228.991,485.649 256,503.894" style="fill:none;stroke:rgb(255,184,61);stroke-width:4.17px;"/>
</svg>
